<svg xmlns="http://www.w3.org/2000/svg" xmlns:xlink="http://www.w3.org/1999/xlink" width="500" zoomAndPan="magnify" viewBox="0 0 375 374.999991" height="500" preserveAspectRatio="xMidYMid meet" version="1.0"><defs><g/><clipPath id="bb0cf6b45a"><path d="M 114.527344 79.144531 L 269.027344 79.144531 L 269.027344 253 L 114.527344 253 Z M 114.527344 79.144531 " clip-rule="nonzero"/></clipPath><clipPath id="4892f2524a"><path d="M 130.972656 98 L 252.472656 98 L 252.472656 234 L 130.972656 234 Z M 130.972656 98 " clip-rule="nonzero"/></clipPath></defs><g clip-path="url(#bb0cf6b45a)"><path fill="#64ffda" d="M 259.75 215.980469 L 230.394531 232.925781 L 201.042969 249.875 C 195.925781 252.828125 187.617188 252.828125 182.503906 249.875 L 153.148438 232.925781 L 123.792969 215.980469 C 118.675781 213.023438 114.523438 205.832031 114.523438 199.921875 L 114.523438 132.132812 C 114.523438 126.226562 118.675781 119.03125 123.792969 116.074219 L 153.148438 99.128906 L 182.503906 82.179688 C 187.617188 79.226562 195.925781 79.226562 201.042969 82.179688 L 230.394531 99.128906 L 259.75 116.074219 C 264.867188 119.03125 269.019531 126.226562 269.019531 132.132812 L 269.019531 199.921875 C 269.019531 205.832031 264.867188 213.023438 259.75 215.980469 Z M 259.75 215.980469 " fill-opacity="1" fill-rule="nonzero"/></g><g clip-path="url(#4892f2524a)"><path fill="#0a1a2f" d="M 245.285156 205.351562 L 222.175781 218.691406 L 199.070312 232.03125 C 195.042969 234.355469 188.503906 234.355469 184.476562 232.03125 L 138.265625 205.351562 C 134.238281 203.023438 130.96875 197.359375 130.96875 192.710938 L 130.96875 139.347656 C 130.96875 134.699219 134.238281 129.035156 138.265625 126.710938 L 184.476562 100.03125 C 188.503906 97.703125 195.042969 97.703125 199.070312 100.03125 L 222.175781 113.371094 L 245.285156 126.710938 C 249.3125 129.035156 252.582031 134.699219 252.582031 139.347656 L 252.582031 192.710938 C 252.582031 197.359375 249.3125 203.023438 245.285156 205.351562 Z M 245.285156 205.351562 " fill-opacity="1" fill-rule="nonzero"/></g><g fill="#64ffda" fill-opacity="1"><g transform="translate(158.657704, 206.147421)"><g><path d="M 31.984375 1.59375 C 27.484375 1.59375 22.664062 0.984375 17.53125 -0.234375 C 12.394531 -1.453125 8.378906 -2.78125 5.484375 -4.21875 L 7.1875 -19.75 C 17.238281 -14.882812 26.070312 -12.453125 33.6875 -12.453125 C 37.726562 -12.453125 40.890625 -13.226562 43.171875 -14.78125 C 45.453125 -16.34375 46.59375 -18.648438 46.59375 -21.703125 C 46.59375 -23.984375 45.960938 -25.863281 44.703125 -27.34375 C 43.453125 -28.832031 41.644531 -30.085938 39.28125 -31.109375 C 36.925781 -32.140625 33.160156 -33.570312 27.984375 -35.40625 C 23.109375 -37.082031 19.070312 -38.851562 15.875 -40.71875 C 12.675781 -42.582031 10.144531 -44.976562 8.28125 -47.90625 C 6.414062 -50.84375 5.484375 -54.441406 5.484375 -58.703125 C 5.484375 -65.554688 7.992188 -71.078125 13.015625 -75.265625 C 18.046875 -79.453125 25.242188 -81.546875 34.609375 -81.546875 C 39.023438 -81.546875 43.421875 -81.050781 47.796875 -80.0625 C 52.171875 -79.070312 56.1875 -77.851562 59.84375 -76.40625 L 58.359375 -61.4375 C 53.640625 -63.5 49.316406 -65.039062 45.390625 -66.0625 C 41.472656 -67.09375 37.570312 -67.609375 33.6875 -67.609375 C 29.351562 -67.609375 26.039062 -66.882812 23.75 -65.4375 C 21.46875 -63.988281 20.328125 -61.894531 20.328125 -59.15625 C 20.328125 -57.019531 20.9375 -55.265625 22.15625 -53.890625 C 23.375 -52.523438 25.03125 -51.382812 27.125 -50.46875 C 29.21875 -49.5625 32.320312 -48.460938 36.4375 -47.171875 C 45.644531 -44.273438 52.359375 -40.941406 56.578125 -37.171875 C 60.804688 -33.398438 62.921875 -28.242188 62.921875 -21.703125 C 62.921875 -15.453125 60.75 -10.003906 56.40625 -5.359375 C 52.070312 -0.722656 43.929688 1.59375 31.984375 1.59375 Z M 31.984375 1.59375 "/></g></g></g></svg>